<?xml version="1.0" encoding="UTF-8"?>
<!-- Generator: Adobe Illustrator 24.1.0, SVG Export Plug-In . SVG Version: 6.00 Build 0)  -->
<svg xmlns="http://www.w3.org/2000/svg" xmlns:xlink="http://www.w3.org/1999/xlink" x="0px" y="0px" viewBox="0 0 392.4 126" style="enable-background:new 0 0 392.4 126;" xml:space="preserve">
<style type="text/css">
	.st0{fill:#010101;}
	svg{background:#fff;}
</style>
<g>
	<polygon class="st0" points="34.94,33.76 52.45,33.76 34.15,63.39 34.15,65.33 56.9,65.33 56.9,62.39 38.61,62.39 57,32.67    57,30.82 34.94,30.82  "></polygon>
	<polygon class="st0" points="84.42,33.76 84.42,30.82 64.49,30.82 64.49,65.33 85.13,65.33 85.13,62.39 68.02,62.39 68.02,49.02    83.5,49.02 83.5,46.09 68.02,46.09 68.02,33.76  "></polygon>
	<polygon class="st0" points="96.72,30.82 93.19,30.82 93.19,65.33 112.81,65.33 112.81,62.39 96.72,62.39  "></polygon>
	<path class="st0" d="M121.15,72.39c1-0.33,1.86-0.89,2.6-1.68s1.27-1.87,1.61-3.25c0.34-1.37,0.51-3.08,0.51-5.12V30.82h-3.53   v31.52c0,2.99-0.35,5-1.04,6.06c-0.7,1.05-2.05,1.58-4.05,1.58c-0.77,0-1.88-0.13-3.32-0.4l-0.36,2.8   c1.55,0.35,2.85,0.52,3.91,0.52C118.93,72.89,120.16,72.73,121.15,72.39z"></path>
	<polygon class="st0" points="139.47,48.29 156.49,65.33 160.85,65.33 143.15,47.41 159.76,30.82 155.37,30.82 139.47,46.68    139.47,30.82 135.94,30.82 135.94,65.33 139.47,65.33  "></polygon>
	<path class="st0" d="M179.86,65.83c5.02,0,9-1.6,11.93-4.8c2.93-3.2,4.4-7.5,4.4-12.9c0-3.56-0.66-6.68-1.99-9.38   c-1.33-2.7-3.22-4.79-5.69-6.28c-2.46-1.48-5.34-2.23-8.63-2.23c-5.07,0-9.09,1.63-12.04,4.88c-2.95,3.26-4.43,7.59-4.43,13.01   c0,5.4,1.48,9.7,4.43,12.9C170.8,64.23,174.8,65.83,179.86,65.83z M170.54,37.23c2.26-2.73,5.36-4.09,9.31-4.09   c3.93,0,7.01,1.36,9.23,4.08c2.22,2.72,3.33,6.35,3.33,10.9s-1.11,8.15-3.32,10.81c-2.21,2.66-5.3,3.98-9.27,3.98   c-3.97,0-7.07-1.33-9.31-3.99c-2.24-2.66-3.36-6.26-3.36-10.79C167.15,43.59,168.28,39.96,170.54,37.23z"></path>
	<path class="st0" d="M235.27,63.27c2.02-1.71,3.03-4.1,3.03-7.18c0-0.54-0.02-1.03-0.06-1.48c-0.04-0.45-0.11-0.89-0.2-1.32   c-0.09-0.43-0.22-0.83-0.38-1.2c-0.16-0.37-0.35-0.73-0.57-1.08c-0.22-0.35-0.48-0.67-0.77-0.98c-0.29-0.31-0.63-0.6-1.01-0.89   c-0.38-0.28-0.8-0.55-1.26-0.81c-0.46-0.25-0.97-0.5-1.54-0.75c-0.57-0.24-1.18-0.48-1.84-0.7c-0.66-0.22-1.38-0.44-2.17-0.66   c-0.06-0.02-0.52-0.14-1.37-0.37c-0.85-0.23-1.32-0.36-1.4-0.39c-2.4-0.68-4.01-1.45-4.81-2.32c-0.81-0.87-1.21-2.24-1.21-4.1   c0-1.9,0.68-3.35,2.05-4.37c1.37-1.02,3.24-1.53,5.6-1.53c1.93,0,3.56,0.29,4.91,0.87c1.34,0.58,2.39,1.23,3.13,1.95l1.68-2.42   c-0.33-0.3-0.61-0.55-0.84-0.73c-0.23-0.19-0.66-0.47-1.28-0.83c-0.62-0.36-1.26-0.65-1.91-0.88c-0.65-0.22-1.5-0.42-2.56-0.6   c-1.06-0.18-2.19-0.27-3.39-0.27c-3.37,0-6.05,0.78-8.06,2.35c-2.01,1.56-3.01,3.75-3.01,6.57c0,1.37,0.18,2.57,0.55,3.59   c0.36,1.02,0.94,1.9,1.72,2.63c0.78,0.73,1.69,1.35,2.73,1.85c1.03,0.5,2.31,0.96,3.83,1.39c0.03,0.02,0.29,0.08,0.76,0.2   s0.92,0.24,1.34,0.36c0.42,0.12,0.66,0.19,0.72,0.2c1.93,0.55,3.39,1.12,4.4,1.71c1,0.58,1.7,1.26,2.1,2.04   c0.39,0.77,0.59,1.79,0.59,3.06c0,2.1-0.67,3.75-2.03,4.95c-1.35,1.2-3.27,1.8-5.75,1.8c-3.4,0-6.48-1.15-9.24-3.46l-1.59,2.51   c0.39,0.35,0.85,0.7,1.35,1.04c0.51,0.35,1.21,0.76,2.12,1.23c0.91,0.47,2.01,0.86,3.32,1.15c1.3,0.29,2.68,0.44,4.14,0.44   C230.52,65.83,233.24,64.97,235.27,63.27z"></path>
	<polygon class="st0" points="270.67,65.33 252.97,47.41 269.58,30.82 265.2,30.82 249.29,46.68 249.29,30.82 245.76,30.82    245.76,65.33 249.29,65.33 249.29,48.29 266.31,65.33  "></polygon>
	<rect x="276.12" y="30.82" class="st0" width="3.56" height="34.51"></rect>
	<path class="st0" d="M309.55,47.06c1.98-1.42,2.97-3.77,2.97-7.04c0-1.75-0.27-3.23-0.81-4.42c-0.54-1.19-1.36-2.14-2.46-2.83   c-1.11-0.7-2.41-1.19-3.9-1.49c-1.49-0.3-3.3-0.45-5.42-0.45h-10.07v34.51h3.53V49.19h7.02C304.52,49.19,307.57,48.48,309.55,47.06   z M293.4,46.28V33.76h6.59c0.27,0,0.52,0,0.76,0c1.44,0,2.65,0.1,3.65,0.31s1.84,0.55,2.55,1.04c0.7,0.49,1.22,1.14,1.55,1.94   c0.33,0.81,0.5,1.8,0.5,2.99c0,2.26-0.67,3.86-2.01,4.81c-1.34,0.95-3.54,1.42-6.59,1.42H293.4z"></path>
	<rect x="319.66" y="30.82" class="st0" width="3.56" height="34.51"></rect>
	<path class="st0" d="M335.73,61.3c1.5,1.45,3.27,2.57,5.32,3.36c2.04,0.79,4.27,1.19,6.67,1.19c4.17,0,7.92-1.14,11.23-3.44   l-1.16-2.68c-3.03,2.12-6.35,3.17-9.96,3.17c-3.98,0-7.18-1.3-9.6-3.9c-2.42-2.6-3.63-6.1-3.63-10.49c0-3,0.54-5.66,1.62-7.99   c1.08-2.32,2.64-4.14,4.68-5.44c2.04-1.3,4.39-1.96,7.06-1.96c3.37,0,6.3,0.95,8.79,2.84l1.42-2.35c-2.7-2.28-6.17-3.41-10.4-3.41   c-3.29,0-6.21,0.75-8.76,2.24c-2.55,1.49-4.54,3.63-5.97,6.41c-1.43,2.78-2.14,6-2.14,9.65c0,2.69,0.43,5.12,1.28,7.31   C333.05,58.03,334.22,59.85,335.73,61.3z"></path>
	<path class="st0" d="M75.8,86.08c-0.86,3.56-1.52,6.29-1.97,8.2l-0.5-1.83l-3.82-12.84h-1.7c-0.22,0.76-0.86,2.92-1.93,6.49   s-1.86,6.33-2.39,8.29l-0.41-1.97l-3.23-12.8h-1.82l4.41,16.6h1.98l4.23-14.36l4.18,14.36h2.01l4.26-16.6h-1.74   C77.18,80.36,76.66,82.52,75.8,86.08z"></path>
	<path class="st0" d="M92.97,80.39c-1.19-0.71-2.57-1.07-4.15-1.07c-2.44,0-4.37,0.78-5.79,2.35c-1.42,1.57-2.13,3.65-2.13,6.26   c0,2.6,0.71,4.67,2.13,6.21c1.42,1.54,3.35,2.31,5.78,2.31c2.42,0,4.33-0.77,5.74-2.31c1.41-1.54,2.11-3.61,2.11-6.21   c0-1.71-0.32-3.22-0.96-4.51C95.07,82.12,94.16,81.11,92.97,80.39z M93.26,93.13c-1.06,1.28-2.55,1.92-4.46,1.92   s-3.4-0.64-4.48-1.92c-1.08-1.28-1.62-3.01-1.62-5.19c0-2.18,0.54-3.93,1.63-5.24c1.09-1.31,2.58-1.97,4.48-1.97   c1.89,0,3.37,0.65,4.44,1.96c1.07,1.31,1.6,3.06,1.6,5.25C94.85,90.12,94.32,91.85,93.26,93.13z"></path>
	<path class="st0" d="M109.63,90.19c-0.11-0.25-0.24-0.52-0.39-0.79c-0.16-0.27-0.32-0.49-0.49-0.64c-0.17-0.15-0.38-0.29-0.62-0.42   c-0.24-0.13-0.52-0.23-0.85-0.3c1.1-0.16,1.93-0.6,2.49-1.33c0.55-0.73,0.83-1.64,0.83-2.74c0-0.81-0.12-1.5-0.37-2.08   s-0.62-1.02-1.12-1.36c-0.5-0.33-1.08-0.57-1.74-0.72s-1.46-0.22-2.38-0.22h-5.13v16.6h1.7v-7.52h3.69c0.33,0,0.62,0.02,0.86,0.05   s0.46,0.09,0.66,0.19c0.2,0.1,0.36,0.2,0.5,0.33c0.13,0.12,0.27,0.3,0.4,0.52c0.14,0.23,0.26,0.46,0.36,0.71s0.23,0.57,0.38,0.97   l1.73,4.77h1.73l-1.84-4.96C109.87,90.8,109.73,90.45,109.63,90.19z M105.14,87.28h-3.57v-6.26h3.44c0.11,0,0.21,0,0.31,0   c0.62,0,1.14,0.05,1.58,0.16s0.8,0.28,1.1,0.52c0.3,0.24,0.52,0.55,0.66,0.93s0.21,0.85,0.21,1.41c0,1.11-0.31,1.93-0.94,2.45   C107.3,87.02,106.37,87.28,105.14,87.28z"></path>
	<path class="st0" d="M126.17,81.71c-1.61-1.4-3.95-2.1-7.02-2.1h-4.17v16.6h4.66c2.91,0,5.13-0.7,6.66-2.11   c1.53-1.41,2.29-3.43,2.29-6.09C128.59,85.21,127.78,83.11,126.17,81.71z M125.01,93.05c-1.2,1.16-2.97,1.75-5.3,1.75h-3.03V81.02   h2.58c5.04,0,7.56,2.33,7.56,6.99C126.81,90.21,126.21,91.89,125.01,93.05z"></path>
	<path class="st0" d="M141.29,80.54c-0.53-0.33-1.16-0.57-1.88-0.72s-1.59-0.22-2.6-0.22h-4.85v16.6h1.7v-7.76h3.38   c1.98,0,3.44-0.34,4.39-1.03c0.95-0.68,1.43-1.81,1.43-3.39c0-0.84-0.13-1.55-0.39-2.13C142.22,81.33,141.82,80.88,141.29,80.54z    M140.19,86.36c-0.65,0.46-1.7,0.68-3.17,0.68h-3.36v-6.02h3.17c0.13,0,0.25,0,0.36,0c0.69,0,1.28,0.05,1.76,0.15   s0.89,0.27,1.23,0.5c0.34,0.24,0.59,0.55,0.75,0.94c0.16,0.39,0.24,0.87,0.24,1.44C141.16,85.13,140.84,85.9,140.19,86.36z"></path>
	<path class="st0" d="M155.4,90.19c-0.11-0.25-0.24-0.52-0.39-0.79c-0.16-0.27-0.32-0.49-0.49-0.64c-0.17-0.15-0.38-0.29-0.62-0.42   c-0.24-0.13-0.52-0.23-0.85-0.3c1.1-0.16,1.93-0.6,2.49-1.33c0.55-0.73,0.83-1.64,0.83-2.74c0-0.81-0.12-1.5-0.37-2.08   s-0.62-1.02-1.12-1.36c-0.5-0.33-1.08-0.57-1.74-0.72s-1.46-0.22-2.38-0.22h-5.13v16.6h1.7v-7.52h3.69c0.33,0,0.62,0.02,0.86,0.05   s0.46,0.09,0.66,0.19c0.2,0.1,0.36,0.2,0.5,0.33c0.13,0.12,0.27,0.3,0.4,0.52c0.14,0.23,0.26,0.46,0.36,0.71s0.23,0.57,0.38,0.97   l1.73,4.77h1.73l-1.84-4.96C155.65,90.8,155.51,90.45,155.4,90.19z M150.91,87.28h-3.57v-6.26h3.44c0.11,0,0.21,0,0.31,0   c0.62,0,1.14,0.05,1.58,0.16s0.8,0.28,1.1,0.52c0.3,0.24,0.52,0.55,0.66,0.93s0.21,0.85,0.21,1.41c0,1.11-0.31,1.93-0.94,2.45   C153.07,87.02,152.14,87.28,150.91,87.28z"></path>
	<polygon class="st0" points="162.45,88.36 169.89,88.36 169.89,86.95 162.45,86.95 162.45,81.02 170.34,81.02 170.34,79.61    160.75,79.61 160.75,96.21 170.68,96.21 170.68,94.79 162.45,94.79  "></polygon>
	<path class="st0" d="M183.73,90.42c-0.05-0.21-0.11-0.4-0.18-0.58c-0.08-0.18-0.17-0.35-0.27-0.52s-0.23-0.33-0.37-0.47   c-0.14-0.15-0.3-0.29-0.48-0.43c-0.18-0.14-0.38-0.27-0.6-0.39c-0.22-0.12-0.47-0.24-0.74-0.36s-0.57-0.23-0.88-0.34   c-0.32-0.11-0.66-0.21-1.04-0.32c-0.03-0.01-0.25-0.07-0.66-0.18c-0.41-0.11-0.63-0.17-0.67-0.19c-1.16-0.33-1.93-0.7-2.31-1.12   c-0.39-0.42-0.58-1.08-0.58-1.97c0-0.91,0.33-1.61,0.99-2.1c0.66-0.49,1.56-0.74,2.7-0.74c0.93,0,1.71,0.14,2.36,0.42   c0.65,0.28,1.15,0.59,1.5,0.94l0.81-1.16c-0.16-0.14-0.29-0.26-0.4-0.35c-0.11-0.09-0.32-0.22-0.62-0.4   c-0.3-0.17-0.61-0.31-0.92-0.42c-0.31-0.11-0.72-0.2-1.23-0.29c-0.51-0.09-1.05-0.13-1.63-0.13c-1.62,0-2.91,0.38-3.88,1.13   c-0.97,0.75-1.45,1.81-1.45,3.16c0,0.66,0.09,1.24,0.26,1.73c0.17,0.49,0.45,0.91,0.83,1.27c0.38,0.35,0.81,0.65,1.31,0.89   c0.5,0.24,1.11,0.46,1.84,0.67c0.02,0.01,0.14,0.04,0.37,0.1c0.23,0.06,0.44,0.11,0.64,0.17c0.2,0.06,0.32,0.09,0.35,0.1   c0.93,0.27,1.63,0.54,2.11,0.82c0.48,0.28,0.82,0.61,1.01,0.98c0.19,0.37,0.28,0.86,0.28,1.47c0,1.01-0.32,1.81-0.97,2.38   c-0.65,0.58-1.57,0.87-2.76,0.87c-1.63,0-3.12-0.55-4.45-1.66l-0.76,1.21c0.19,0.17,0.41,0.33,0.65,0.5s0.58,0.37,1.02,0.59   c0.44,0.23,0.97,0.41,1.6,0.55c0.63,0.14,1.29,0.21,1.99,0.21c1.65,0,2.96-0.41,3.93-1.23c0.97-0.82,1.46-1.97,1.46-3.46   c0-0.26-0.01-0.5-0.03-0.71C183.81,90.83,183.78,90.62,183.73,90.42z"></path>
	<path class="st0" d="M196.63,90.42c-0.04-0.21-0.11-0.4-0.18-0.58c-0.08-0.18-0.17-0.35-0.27-0.52c-0.11-0.17-0.23-0.33-0.37-0.47   c-0.14-0.15-0.3-0.29-0.48-0.43c-0.18-0.14-0.38-0.27-0.6-0.39c-0.22-0.12-0.47-0.24-0.74-0.36s-0.57-0.23-0.88-0.34   c-0.32-0.11-0.66-0.21-1.04-0.32c-0.03-0.01-0.25-0.07-0.66-0.18c-0.41-0.11-0.63-0.17-0.67-0.19c-1.16-0.33-1.93-0.7-2.31-1.12   c-0.39-0.42-0.58-1.08-0.58-1.97c0-0.91,0.33-1.61,0.99-2.1c0.66-0.49,1.56-0.74,2.7-0.74c0.93,0,1.71,0.14,2.36,0.42   c0.65,0.28,1.15,0.59,1.5,0.94l0.81-1.16c-0.16-0.14-0.29-0.26-0.4-0.35c-0.11-0.09-0.32-0.22-0.62-0.4   c-0.3-0.17-0.61-0.31-0.92-0.42c-0.31-0.11-0.72-0.2-1.23-0.29c-0.51-0.09-1.05-0.13-1.63-0.13c-1.62,0-2.91,0.38-3.88,1.13   c-0.97,0.75-1.45,1.81-1.45,3.16c0,0.66,0.09,1.24,0.26,1.73c0.17,0.49,0.45,0.91,0.83,1.27c0.38,0.35,0.81,0.65,1.31,0.89   c0.5,0.24,1.11,0.46,1.84,0.67c0.02,0.01,0.14,0.04,0.37,0.1c0.23,0.06,0.44,0.11,0.64,0.17c0.2,0.06,0.32,0.09,0.35,0.1   c0.93,0.27,1.63,0.54,2.11,0.82c0.48,0.28,0.82,0.61,1.01,0.98c0.19,0.37,0.28,0.86,0.28,1.47c0,1.01-0.32,1.81-0.97,2.38   c-0.65,0.58-1.57,0.87-2.76,0.87c-1.63,0-3.12-0.55-4.45-1.66l-0.76,1.21c0.19,0.17,0.41,0.33,0.65,0.5s0.58,0.37,1.02,0.59   c0.44,0.23,0.97,0.41,1.6,0.55c0.63,0.14,1.29,0.21,1.99,0.21c1.65,0,2.96-0.41,3.93-1.23c0.97-0.82,1.46-1.97,1.46-3.46   c0-0.26-0.01-0.5-0.03-0.71C196.71,90.83,196.67,90.62,196.63,90.42z"></path>
	<path class="st0" d="M217.44,81.71c-1.61-1.4-3.95-2.1-7.02-2.1h-4.17v16.6h4.66c2.91,0,5.13-0.7,6.66-2.11   c1.53-1.41,2.29-3.43,2.29-6.09C219.85,85.21,219.05,83.11,217.44,81.71z M216.27,93.05c-1.2,1.16-2.97,1.75-5.3,1.75h-3.03V81.02   h2.58c5.04,0,7.56,2.33,7.56,6.99C218.07,90.21,217.47,91.89,216.27,93.05z"></path>
	<polygon class="st0" points="224.93,88.36 232.37,88.36 232.37,86.95 224.93,86.95 224.93,81.02 232.82,81.02 232.82,79.61    223.23,79.61 223.23,96.21 233.16,96.21 233.16,94.79 224.93,94.79  "></polygon>
	<path class="st0" d="M245.54,84.26c-0.71,1.99-1.36,3.81-1.95,5.46s-1.13,3.21-1.63,4.68c-0.52-1.46-1.07-3.01-1.66-4.66   s-1.24-3.47-1.95-5.47c-0.71-2-1.26-3.55-1.66-4.66h-1.85l6.16,16.6h1.88l6.11-16.6h-1.79C246.81,80.72,246.25,82.27,245.54,84.26z   "></path>
	<polygon class="st0" points="253.36,88.36 260.81,88.36 260.81,86.95 253.36,86.95 253.36,81.02 261.25,81.02 261.25,79.61    251.66,79.61 251.66,96.21 261.59,96.21 261.59,94.79 253.36,94.79  "></polygon>
	<polygon class="st0" points="266.7,79.61 265,79.61 265,96.21 274.44,96.21 274.44,94.79 266.7,94.79  "></polygon>
	<path class="st0" d="M287.69,80.39c-1.19-0.71-2.57-1.07-4.15-1.07c-2.44,0-4.37,0.78-5.79,2.35c-1.42,1.57-2.13,3.65-2.13,6.26   c0,2.6,0.71,4.67,2.13,6.21c1.42,1.54,3.35,2.31,5.78,2.31c2.42,0,4.33-0.77,5.74-2.31s2.12-3.61,2.12-6.21   c0-1.71-0.32-3.22-0.96-4.51C289.79,82.12,288.88,81.11,287.69,80.39z M287.98,93.13c-1.06,1.28-2.55,1.92-4.46,1.92   c-1.91,0-3.4-0.64-4.48-1.92c-1.08-1.28-1.62-3.01-1.62-5.19c0-2.18,0.54-3.93,1.63-5.24c1.09-1.31,2.58-1.97,4.48-1.97   c1.89,0,3.37,0.65,4.44,1.96c1.07,1.31,1.6,3.06,1.6,5.25C289.57,90.12,289.04,91.85,287.98,93.13z"></path>
	<path class="st0" d="M296.28,88.44h3.38c1.98,0,3.44-0.34,4.39-1.03c0.95-0.68,1.43-1.81,1.43-3.39c0-0.84-0.13-1.55-0.39-2.13   c-0.26-0.57-0.65-1.03-1.19-1.36c-0.53-0.33-1.16-0.57-1.88-0.72c-0.72-0.14-1.59-0.22-2.61-0.22h-4.84v16.6h1.7V88.44z    M296.28,81.02h3.17c0.13,0,0.25,0,0.36,0c0.69,0,1.28,0.05,1.76,0.15s0.89,0.27,1.23,0.5c0.34,0.24,0.59,0.55,0.75,0.94   c0.16,0.39,0.24,0.87,0.24,1.44c0,1.09-0.32,1.86-0.97,2.31c-0.65,0.46-1.7,0.68-3.17,0.68h-3.36V81.02z"></path>
	<polygon class="st0" points="317.83,81.02 317.83,79.61 308.25,79.61 308.25,96.21 318.18,96.21 318.18,94.79 309.95,94.79    309.95,88.36 317.39,88.36 317.39,86.95 309.95,86.95 309.95,81.02  "></polygon>
	<path class="st0" d="M321.59,96.21h1.7v-7.52h3.69c0.33,0,0.62,0.02,0.86,0.05s0.46,0.09,0.66,0.19c0.2,0.1,0.36,0.2,0.5,0.33   c0.13,0.12,0.27,0.3,0.41,0.52c0.14,0.23,0.26,0.46,0.36,0.71s0.23,0.57,0.38,0.97l1.73,4.77h1.73l-1.83-4.96   c-0.17-0.45-0.3-0.8-0.41-1.05s-0.24-0.52-0.39-0.79c-0.16-0.27-0.32-0.49-0.49-0.64s-0.38-0.29-0.62-0.42   c-0.24-0.13-0.52-0.23-0.85-0.3c1.1-0.16,1.93-0.6,2.49-1.33c0.55-0.73,0.83-1.64,0.83-2.74c0-0.81-0.12-1.5-0.37-2.08   c-0.25-0.57-0.62-1.02-1.12-1.36c-0.5-0.33-1.08-0.57-1.74-0.72s-1.46-0.22-2.38-0.22h-5.13V96.21z M323.3,81.02h3.44   c0.11,0,0.21,0,0.31,0c0.62,0,1.14,0.05,1.58,0.16c0.44,0.11,0.8,0.28,1.1,0.52c0.3,0.24,0.51,0.55,0.66,0.93s0.21,0.85,0.21,1.41   c0,1.11-0.31,1.93-0.94,2.45s-1.56,0.79-2.79,0.79h-3.57V81.02z"></path>
	<polygon class="st0" points="96.66,3.28 5.83,3.28 2.89,3.28 2.89,6.21 2.89,97.04 5.83,97.04 5.83,6.21 96.66,6.21  "></polygon>
	<polygon class="st0" points="386.42,28.43 386.42,119.27 295.58,119.27 295.58,122.2 386.42,122.2 389.35,122.2 389.35,119.27    389.35,28.43  "></polygon>
</g>
</svg>
