<svg width="64" height="64" viewBox="0 0 64 64" fill="none" xmlns="http://www.w3.org/2000/svg">
<path fill-rule="evenodd" clip-rule="evenodd" d="M33.2071 45.2929C32.8166 45.6834 32.1834 45.6834 31.7929 45.2929L30.6508 44.1508C30.2606 43.7606 30.2603 43.1279 30.6502 42.7373L40.0581 33.3125L19 33.3125C18.4477 33.3125 18 32.8648 18 32.3125L18 30.6875C18 30.1352 18.4477 29.6875 19 29.6875L40.0581 29.6875L30.6502 20.2627C30.2603 19.8721 30.2606 19.2394 30.6508 18.8491L31.7929 17.7071C32.1834 17.3166 32.8166 17.3166 33.2071 17.7071L47 31.5L33.2071 45.2929Z" fill="#2FB297"/>
<mask id="mask0_334_9992" style="mask-type:luminance" maskUnits="userSpaceOnUse" x="18" y="17" width="29" height="29">
<path fill-rule="evenodd" clip-rule="evenodd" d="M33.2071 45.2929C32.8166 45.6834 32.1834 45.6834 31.7929 45.2929L30.6508 44.1508C30.2606 43.7606 30.2603 43.1279 30.6502 42.7373L40.0581 33.3125L19 33.3125C18.4477 33.3125 18 32.8648 18 32.3125L18 30.6875C18 30.1352 18.4477 29.6875 19 29.6875L40.0581 29.6875L30.6502 20.2627C30.2603 19.8721 30.2606 19.2394 30.6508 18.8491L31.7929 17.7071C32.1834 17.3166 32.8166 17.3166 33.2071 17.7071L47 31.5L33.2071 45.2929Z" fill="white"/>
</mask>
<g mask="url(#mask0_334_9992)">
<rect width="43.5" height="43.5" transform="matrix(1 -8.33495e-08 -9.16951e-08 -1 10.75 53.25)" fill="#2FB297"/>
</g>
</svg>
