<svg width="24" height="25" viewBox="0 0 24 25" fill="none" xmlns="http://www.w3.org/2000/svg">
<path fill-rule="evenodd" clip-rule="evenodd" d="M12.7053 4.99987C12.3158 4.61034 11.6842 4.61034 11.2947 4.99987C10.9054 5.38916 10.9051 6.02023 11.2941 6.40987L16.17 11.2946H5C4.44771 11.2946 4 11.7423 4 12.2946C4 12.8468 4.44772 13.2946 5 13.2946H16.17L11.2941 18.1792C10.9051 18.5689 10.9054 19.2 11.2947 19.5892C11.6842 19.9788 12.3158 19.9788 12.7053 19.5892L20 12.2946L12.7053 4.99987Z" fill="#2FB297"/>
<mask id="mask0_272_10820" style="mask-type:luminance" maskUnits="userSpaceOnUse" x="4" y="4" width="16" height="16">
<path fill-rule="evenodd" clip-rule="evenodd" d="M12.7053 4.99987C12.3158 4.61034 11.6842 4.61034 11.2947 4.99987C10.9054 5.38916 10.9051 6.02023 11.2941 6.40987L16.17 11.2946H5C4.44771 11.2946 4 11.7423 4 12.2946C4 12.8468 4.44772 13.2946 5 13.2946H16.17L11.2941 18.1792C10.9051 18.5689 10.9054 19.2 11.2947 19.5892C11.6842 19.9788 12.3158 19.9788 12.7053 19.5892L20 12.2946L12.7053 4.99987Z" fill="white"/>
</mask>
<g mask="url(#mask0_272_10820)">
<rect y="0.294556" width="24" height="24" fill="#2FB297"/>
</g>
</svg>
