<svg width="64" height="64" viewBox="0 0 64 64" fill="none" xmlns="http://www.w3.org/2000/svg">
<path fill-rule="evenodd" clip-rule="evenodd" d="M31.7929 45.2929C32.1834 45.6834 32.8166 45.6834 33.2071 45.2929L34.3492 44.1508C34.7394 43.7606 34.7397 43.1279 34.3498 42.7373L24.9419 33.3125L46 33.3125C46.5523 33.3125 47 32.8648 47 32.3125L47 30.6875C47 30.1352 46.5523 29.6875 46 29.6875L24.9419 29.6875L34.3498 20.2627C34.7397 19.8721 34.7394 19.2394 34.3492 18.8491L33.2071 17.7071C32.8166 17.3166 32.1834 17.3166 31.7929 17.7071L18 31.5L31.7929 45.2929Z" fill="#2FB297"/>
<mask id="mask0_334_9979" style="mask-type:luminance" maskUnits="userSpaceOnUse" x="18" y="17" width="29" height="29">
<path fill-rule="evenodd" clip-rule="evenodd" d="M31.7929 45.2929C32.1834 45.6834 32.8166 45.6834 33.2071 45.2929L34.3492 44.1508C34.7394 43.7606 34.7397 43.1279 34.3498 42.7373L24.9419 33.3125L46 33.3125C46.5523 33.3125 47 32.8648 47 32.3125L47 30.6875C47 30.1352 46.5523 29.6875 46 29.6875L24.9419 29.6875L34.3498 20.2627C34.7397 19.8721 34.7394 19.2394 34.3492 18.8491L33.2071 17.7071C32.8166 17.3166 32.1834 17.3166 31.7929 17.7071L18 31.5L31.7929 45.2929Z" fill="white"/>
</mask>
<g mask="url(#mask0_334_9979)">
<rect x="54.25" y="53.25" width="43.5" height="43.5" transform="rotate(-180 54.25 53.25)" fill="#2FB297"/>
</g>
</svg>
