<svg width="24" height="25" viewBox="0 0 24 25" fill="none" xmlns="http://www.w3.org/2000/svg">
<path fill-rule="evenodd" clip-rule="evenodd" d="M11.2947 19.5892C11.6842 19.9788 12.3158 19.9788 12.7053 19.5892C13.0946 19.2 13.0949 18.5689 12.7059 18.1792L7.83 13.2946L19 13.2946C19.5523 13.2946 20 12.8468 20 12.2946C20 11.7423 19.5523 11.2946 19 11.2946L7.83 11.2946L12.7059 6.40987C13.0949 6.02023 13.0946 5.38916 12.7053 4.99987C12.3158 4.61034 11.6842 4.61034 11.2947 4.99987L4 12.2946L11.2947 19.5892Z" fill="#2FB297"/>
<mask id="mask0_272_10825" style="mask-type:luminance" maskUnits="userSpaceOnUse" x="4" y="4" width="16" height="16">
<path fill-rule="evenodd" clip-rule="evenodd" d="M11.2947 19.5892C11.6842 19.9788 12.3158 19.9788 12.7053 19.5892C13.0946 19.2 13.0949 18.5689 12.7059 18.1792L7.83 13.2946L19 13.2946C19.5523 13.2946 20 12.8468 20 12.2946C20 11.7423 19.5523 11.2946 19 11.2946L7.83 11.2946L12.7059 6.40987C13.0949 6.02023 13.0946 5.38916 12.7053 4.99987C12.3158 4.61034 11.6842 4.61034 11.2947 4.99987L4 12.2946L11.2947 19.5892Z" fill="white"/>
</mask>
<g mask="url(#mask0_272_10825)">
<rect x="24" y="24.2946" width="24" height="24" transform="rotate(-180 24 24.2946)" fill="#2FB297"/>
</g>
</svg>
